<svg xmlns="http://www.w3.org/2000/svg" width="640" height="260" viewBox="0 0 640 260" role="img" aria-label="Agent-writability benchmark: tasks-green and first-try compile rates over recorded live runs">
<rect width="640" height="260" fill="#fcfcfb"/>
<text x="44" y="22" font-size="14" font-weight="600" fill="#262521" font-family="system-ui, sans-serif">Agent writability — live benchmark runs</text>
<g font-family="system-ui, sans-serif">
<line x1="44" y1="226.0" x2="490" y2="226.0" stroke="#e5e4df" stroke-width="1"/><text x="36" y="230.0" text-anchor="end" font-size="11" fill="#6f6e66">0%</text>
<line x1="44" y1="180.5" x2="490" y2="180.5" stroke="#e5e4df" stroke-width="1"/><text x="36" y="184.5" text-anchor="end" font-size="11" fill="#6f6e66">25%</text>
<line x1="44" y1="135.0" x2="490" y2="135.0" stroke="#e5e4df" stroke-width="1"/><text x="36" y="139.0" text-anchor="end" font-size="11" fill="#6f6e66">50%</text>
<line x1="44" y1="89.5" x2="490" y2="89.5" stroke="#e5e4df" stroke-width="1"/><text x="36" y="93.5" text-anchor="end" font-size="11" fill="#6f6e66">75%</text>
<line x1="44" y1="44.0" x2="490" y2="44.0" stroke="#e5e4df" stroke-width="1"/><text x="36" y="48.0" text-anchor="end" font-size="11" fill="#6f6e66">100%</text>
<text x="44.0" y="248" text-anchor="middle" font-size="11" fill="#6f6e66">2026-07-02</text>
<text x="171.4" y="248" text-anchor="middle" font-size="11" fill="#6f6e66">2026-07-02</text>
<text x="298.9" y="248" text-anchor="middle" font-size="11" fill="#6f6e66">2026-07-03</text>
<text x="426.3" y="248" text-anchor="middle" font-size="11" fill="#6f6e66">2026-07-09</text>
<text x="490.0" y="248" text-anchor="middle" font-size="11" fill="#6f6e66">2026-07-16</text>
<polyline fill="none" stroke="#2a78d6" stroke-width="2" points="44.0,74.3 107.7,59.2 171.4,44.0 235.1,44.0 298.9,44.0 362.6,44.0 426.3,44.0 490.0,44.0"/>
<circle cx="44.0" cy="74.3" r="4" fill="#2a78d6" stroke="#fcfcfb" stroke-width="2"><title>2026-07-02 — tasks green: 83% (claude-opus-4-8)</title></circle>
<circle cx="107.7" cy="59.2" r="4" fill="#2a78d6" stroke="#fcfcfb" stroke-width="2"><title>2026-07-02 — tasks green: 92% (claude-opus-4-8)</title></circle>
<circle cx="171.4" cy="44.0" r="4" fill="#2a78d6" stroke="#fcfcfb" stroke-width="2"><title>2026-07-02 — tasks green: 100% (claude-opus-4-8)</title></circle>
<circle cx="235.1" cy="44.0" r="4" fill="#2a78d6" stroke="#fcfcfb" stroke-width="2"><title>2026-07-03 — tasks green: 100% (claude-opus-4-8)</title></circle>
<circle cx="298.9" cy="44.0" r="4" fill="#2a78d6" stroke="#fcfcfb" stroke-width="2"><title>2026-07-03 — tasks green: 100% (claude-opus-4-8)</title></circle>
<circle cx="362.6" cy="44.0" r="4" fill="#2a78d6" stroke="#fcfcfb" stroke-width="2"><title>2026-07-06 — tasks green: 100% (claude-opus-4-8)</title></circle>
<circle cx="426.3" cy="44.0" r="4" fill="#2a78d6" stroke="#fcfcfb" stroke-width="2"><title>2026-07-09 — tasks green: 100% (claude-opus-4-8)</title></circle>
<circle cx="490.0" cy="44.0" r="4" fill="#2a78d6" stroke="#fcfcfb" stroke-width="2"><title>2026-07-16 — tasks green: 100% (claude-opus-4-8)</title></circle>
<text x="500.0" y="48.0" font-size="12" fill="#262521">tasks green 100%</text>
<polyline fill="none" stroke="#1baf7a" stroke-width="2" points="44.0,104.7 107.7,104.7 171.4,89.5 235.1,89.5 298.9,89.5 362.6,89.5 426.3,89.5 490.0,89.5"/>
<circle cx="44.0" cy="104.7" r="4" fill="#1baf7a" stroke="#fcfcfb" stroke-width="2"><title>2026-07-02 — first-try compile: 67% (claude-opus-4-8)</title></circle>
<circle cx="107.7" cy="104.7" r="4" fill="#1baf7a" stroke="#fcfcfb" stroke-width="2"><title>2026-07-02 — first-try compile: 67% (claude-opus-4-8)</title></circle>
<circle cx="171.4" cy="89.5" r="4" fill="#1baf7a" stroke="#fcfcfb" stroke-width="2"><title>2026-07-02 — first-try compile: 75% (claude-opus-4-8)</title></circle>
<circle cx="235.1" cy="89.5" r="4" fill="#1baf7a" stroke="#fcfcfb" stroke-width="2"><title>2026-07-03 — first-try compile: 75% (claude-opus-4-8)</title></circle>
<circle cx="298.9" cy="89.5" r="4" fill="#1baf7a" stroke="#fcfcfb" stroke-width="2"><title>2026-07-03 — first-try compile: 75% (claude-opus-4-8)</title></circle>
<circle cx="362.6" cy="89.5" r="4" fill="#1baf7a" stroke="#fcfcfb" stroke-width="2"><title>2026-07-06 — first-try compile: 75% (claude-opus-4-8)</title></circle>
<circle cx="426.3" cy="89.5" r="4" fill="#1baf7a" stroke="#fcfcfb" stroke-width="2"><title>2026-07-09 — first-try compile: 75% (claude-opus-4-8)</title></circle>
<circle cx="490.0" cy="89.5" r="4" fill="#1baf7a" stroke="#fcfcfb" stroke-width="2"><title>2026-07-16 — first-try compile: 75% (claude-opus-4-8)</title></circle>
<text x="500.0" y="93.5" font-size="12" fill="#262521">first-try compile 75%</text>
</g>
</svg>
